<?xml version="1.0" standalone="no"?><!DOCTYPE svg PUBLIC "-//W3C//DTD SVG 1.1//EN" "http://www.w3.org/Graphics/SVG/1.1/DTD/svg11.dtd"><svg t="1767503457643" class="icon" viewBox="0 0 1068 1024" version="1.1" xmlns="http://www.w3.org/2000/svg" p-id="1802" xmlns:xlink="http://www.w3.org/1999/xlink" width="50.0625" height="48"><path d="M578.782609 934.956522h356.173913V311.652174h-356.173913v623.304348z m445.217391 0a44.521739 44.521739 0 0 1 0 89.043478H133.565217a44.521739 44.521739 0 0 1 0-89.043478h44.52174V445.217391h267.130434v89.043479H267.130435v400.695652h222.608695V222.608696h534.26087v712.347826z m-356.173913-489.739131a44.521739 44.521739 0 0 0 0 89.043479h178.086956a44.521739 44.521739 0 0 0 0-89.043479h-178.086956z m0 133.565218a44.521739 44.521739 0 0 0 0 89.043478h178.086956a44.521739 44.521739 0 0 0 0-89.043478h-178.086956z m0 133.565217a44.521739 44.521739 0 0 0 0 89.043478h178.086956a44.521739 44.521739 0 0 0 0-89.043478h-178.086956zM523.931826 68.029217c5.654261 6.945391 7.880348 15.62713 6.322087 24.486957-1.958957 11.130435-9.794783 21.370435-22.706087 28.983652C505.677913 122.568348 327.234783 214.550261 222.608696 267.130435c-8.993391 4.452174-107.430957 20.702609-116.691479 11.887304L50.131478 225.28a31.343304 31.343304 0 0 1-8.859826-26.000696c0.75687-5.209043 4.051478-12.02087 9.794783-20.569043 7.257043-7.702261 76.488348 17.808696 87.262608 21.637565l66.114783-31.076174-111.705043-64.244869a24.754087 24.754087 0 0 1 11.353043-22.839653l5.832348-4.407652c3.650783-2.80487 7.43513-5.654261 12.109913-8.948869 5.431652-4.185043 14.60313-11.130435 26.935652-11.130435 1.78087 0 3.606261 0.133565 5.387131 0.445217 30.497391 4.318609 60.994783 12.154435 90.468173 19.723131 27.291826 7.034435 55.518609 14.291478 82.988522 18.476521a1772.410435 1772.410435 0 0 0 92.738783-43.408695c15.582609-7.034435 28.93913-9.928348 46.391652-9.97287 11.931826 0.178087 23.730087 2.849391 34.103652 7.702261 9.48313 4.452174 17.408 10.462609 22.884174 17.363478z" fill="#ffffff" p-id="1803"></path></svg>