<?xml version="1.0" standalone="no"?><!DOCTYPE svg PUBLIC "-//W3C//DTD SVG 1.1//EN" "http://www.w3.org/Graphics/SVG/1.1/DTD/svg11.dtd"><svg t="1767503453335" class="icon" viewBox="0 0 1024 1024" version="1.1" xmlns="http://www.w3.org/2000/svg" p-id="1593" xmlns:xlink="http://www.w3.org/1999/xlink" width="48" height="48"><path d="M1024 280.128V1024h-49.856V302.08L512 52.608l-464.32 249.6V1024H0V280.128L512 0l512 280.128zM350.72 464.576l0.128 213.76H104.32V464.64h246.4z m-227.456 19.008v175.808h208.64l-0.192-175.808H123.264z m19.2 79.552v-56.32h101.888v56.32H142.464z m82.88-18.944v-18.432h-63.936v18.432h64zM94.784 460.16V417.28H360.32v42.944H94.72z m255.872 269.888l0.192 213.76H104.32v-213.76h246.4z m-227.392 19.008v175.808h208.64l-0.192-175.808H123.264z m19.2 79.552v-56.32h101.888v56.32H142.464z m82.88-18.944v-18.432h-63.936v18.432h64z m-130.56-84.032v-42.944H360.32v42.944H94.72z m540.352 4.48l0.128 213.76H388.736v-213.76h246.4z m-227.456 18.944v175.808h208.64l-0.128-175.808H407.68z m19.2 79.552v-56.32h101.888v56.32H426.944z m82.944-18.944v-18.432h-64v18.432h64z m-130.56-84.032v-42.944h265.472v42.944H379.264zM549.952 1024v-37.952h94.784V1024H549.952zM94.72 1024v-37.952h94.848V1024H94.784z" fill="#ffffff" p-id="1594"></path></svg>