<?xml version="1.0" standalone="no"?><!DOCTYPE svg PUBLIC "-//W3C//DTD SVG 1.1//EN" "http://www.w3.org/Graphics/SVG/1.1/DTD/svg11.dtd"><svg t="1767503463329" class="icon" viewBox="0 0 1024 1024" version="1.1" xmlns="http://www.w3.org/2000/svg" p-id="2011" xmlns:xlink="http://www.w3.org/1999/xlink" width="48" height="48"><path d="M853.33333333 102.4c40.96 0 68.26666667 27.30666667 68.26666667 68.26666667v682.66666666c0 40.96-27.30666667 68.26666667-68.26666667 68.26666667H170.66666667c-40.96 0-68.26666667-27.30666667-68.26666667-68.26666667V170.66666667c0-40.96 27.30666667-68.26666667 68.26666667-68.26666667h682.66666666m0-68.26666667H170.66666667c-75.09333333 0-136.53333333 61.44-136.53333334 136.53333334v682.66666666c0 75.09333333 61.44 136.53333333 136.53333334 136.53333334h682.66666666c75.09333333 0 136.53333333-61.44 136.53333334-136.53333334V170.66666667c0-75.09333333-61.44-136.53333333-136.53333334-136.53333334z" fill="#ffffff" p-id="2012"></path><path d="M955.73333333 307.2h-887.46666666c-20.48 0-34.13333333-13.65333333-34.13333334-34.13333333s13.65333333-34.13333333 34.13333334-34.13333334h887.46666666c20.48 0 34.13333333 13.65333333 34.13333334 34.13333334s-13.65333333 34.13333333-34.13333334 34.13333333zM546.13333333 546.13333333v273.06666667c0 20.48-13.65333333 34.13333333-34.13333333 34.13333333s-34.13333333-13.65333333-34.13333333-34.13333333v-273.06666667c0-20.48 13.65333333-34.13333333 34.13333333-34.13333333s34.13333333 13.65333333 34.13333333 34.13333333z" fill="#ffffff" p-id="2013"></path><path d="M730.45333333 593.92H293.54666667c-13.65333333 0-34.13333333-13.65333333-34.13333334-34.13333333s13.65333333-34.13333333 34.13333334-34.13333334h430.08c20.48 0 34.13333333 13.65333333 34.13333333 34.13333334 6.82666667 20.48-13.65333333 34.13333333-27.30666667 34.13333333z" fill="#ffffff" p-id="2014"></path><path d="M662.18666667 430.08L539.30666667 552.96c-13.65333333 13.65333333-34.13333333 13.65333333-47.78666667 0-13.65333333-13.65333333-13.65333333-34.13333333 0-47.78666667l122.88-122.88c13.65333333-13.65333333 34.13333333-13.65333333 47.78666667 0 13.65333333 13.65333333 13.65333333 34.13333333 0 47.78666667z" fill="#ffffff" p-id="2015"></path><path d="M409.6 382.29333333l122.88 122.88c13.65333333 13.65333333 13.65333333 34.13333333 0 47.78666667-13.65333333 13.65333333-34.13333333 13.65333333-47.78666667 0L361.81333333 430.08c-13.65333333-13.65333333-13.65333333-34.13333333 0-47.78666667 13.65333333-13.65333333 34.13333333-13.65333333 47.78666667 0zM723.62666667 737.28H300.37333333c-20.48 0-34.13333333-13.65333333-34.13333333-34.13333333s13.65333333-34.13333333 34.13333333-34.13333334h423.25333334c20.48 0 34.13333333 13.65333333 34.13333333 34.13333334 0 13.65333333-13.65333333 34.13333333-34.13333333 34.13333333z" fill="#ffffff" p-id="2016"></path></svg>