<?xml version="1.0" standalone="no"?><!DOCTYPE svg PUBLIC "-//W3C//DTD SVG 1.1//EN" "http://www.w3.org/Graphics/SVG/1.1/DTD/svg11.dtd"><svg t="1767503469304" class="icon" viewBox="0 0 1024 1024" version="1.1" xmlns="http://www.w3.org/2000/svg" p-id="2224" xmlns:xlink="http://www.w3.org/1999/xlink" width="48" height="48"><path d="M729.16 225.137c0-80.702-205.041-102.257-326.216-102.257S76.749 144.415 76.749 225.116a45.9 45.9 0 0 0 0.64 7.593 26.025 26.025 0 0 0-0.64 5.596v428.928c0 80.702 205.04 102.236 326.195 102.236 11.453 0 23.04-0.163 34.401-0.486a25.84 25.84 0 0 0-1.449-51.656c-10.89 0.308-21.98 0.466-32.952 0.466-164.7 0-264.018-32.896-274.903-51.83V503.369c68.71 32.568 191.626 42.747 274.903 42.747 12.616 0 25.262-0.2 37.58-0.579a25.846 25.846 0 0 0-0.772-51.666h-0.81c-11.775 0.369-23.91 0.553-35.998 0.553-164.726 0-264.049-32.906-274.903-51.845V284.626c68.73 32.573 191.642 42.747 274.903 42.747s206.193-10.174 274.903-42.747v170.737a25.646 25.646 0 1 0 51.292 0V229.13c0-0.609-0.133-1.177-0.174-1.776 0.056-0.743 0.195-1.46 0.195-2.217z m-326.216 50.56c-161.06 0-259.584-31.458-274.053-50.555 14.469-19.103 113.014-50.55 274.053-50.55s259.584 31.457 274.053 50.555c-14.433 19.077-112.973 50.55-274.053 50.55z" fill="#ffffff" p-id="2225"></path><path d="M950.436 554.26a56.371 56.371 0 0 0 0.921-9.687c0-73.513-137.681-107.008-265.605-107.008s-265.61 33.475-265.61 107.008a56.35 56.35 0 0 0 1.024 10.148c0 0.149-0.046 0.287-0.046 0.44v238.992c0 73.513 137.687 107.008 265.605 107.008S952.32 867.666 952.32 794.153V563.779a25.298 25.298 0 0 0-1.884-9.519z m-477.83 57.58c51.713 26.988 134.273 39.741 213.146 39.741 79.836 0 163.467-13.045 215.066-40.719v71.204c0 16.19-75.029 55.808-214.108 55.808s-214.103-39.593-214.103-55.808V611.84z m213.146-123.039c139.075 0 214.103 39.598 214.103 55.783s-75.028 55.777-214.103 55.777-214.108-39.588-214.108-55.777 75.029-55.793 214.108-55.793z m0.958 361.119c-139.075 0-214.103-39.598-214.103-55.782V748.81c51.67 27.33 134.748 40.228 214.103 40.228s162.437-12.897 214.108-40.228v45.328c0 16.2-75.029 55.782-214.108 55.782z" fill="#ffffff" p-id="2226"></path></svg>