<svg version="1.1" id="Layer_1" xmlns="http://www.w3.org/2000/svg" xmlns:xlink="http://www.w3.org/1999/xlink" x="0px" y="0px"
	 width="100%" viewBox="0 0 3308 3308" enable-background="new 0 0 3308 3308" xml:space="preserve">
<path fill="#FFFFFF" opacity="1.000000" stroke="none" 
	d="
M1752.000000,3310.000000 
	C1168.000122,3310.000000 585.000366,3310.000000 2.000391,3310.000000 
	C2.000261,2207.333740 2.000261,1104.667725 2.000130,2.001131 
	C1104.665894,2.000754 2207.331787,2.000754 3309.998047,2.000377 
	C3309.998779,1104.665527 3309.998779,2207.331055 3309.999512,3309.998291 
	C2791.000000,3310.000000 2272.000000,3310.000000 1752.000000,3310.000000 
M657.570068,1415.365234 
	C660.391235,1415.193848 663.212463,1415.022339 667.719421,1415.331909 
	C671.808533,1415.302002 675.897583,1415.271973 681.824463,1415.626099 
	C734.000122,1415.770020 786.175598,1415.901001 838.655212,1415.013184 
	C843.770447,1387.005737 848.652954,1360.272339 853.761902,1332.299561 
	C849.417114,1332.299561 846.160583,1332.300293 842.904053,1332.299561 
	C791.916931,1332.288208 740.929871,1332.267578 689.942749,1332.286499 
	C686.624023,1332.287720 683.305481,1332.592163 678.419250,1332.406982 
	C676.292236,1332.520752 674.165283,1332.634521 670.284363,1332.369141 
	C665.510010,1332.495850 660.735657,1332.622559 654.124146,1332.399536 
	C594.733276,1332.357300 535.342407,1332.309937 475.951538,1332.294678 
	C473.976379,1332.294189 472.001129,1332.614868 469.202332,1332.653564 
	C469.033508,1332.875854 468.675568,1333.220337 468.727234,1333.300415 
	C469.016510,1333.748413 469.404663,1334.132690 470.057892,1335.826904 
	C481.535614,1346.882812 492.404205,1358.667480 504.600586,1368.863770 
	C548.436584,1405.511108 599.278687,1419.964233 657.570068,1415.365234 
M1072.145386,1782.075195 
	C1052.177124,1782.885376 1032.206543,1783.640259 1012.241577,1784.523438 
	C996.602966,1785.215210 980.967346,1785.992188 965.337524,1786.859741 
	C921.434021,1789.296509 877.524597,1791.641846 833.636597,1794.334595 
	C806.384155,1796.006592 779.166443,1798.244873 751.232849,1799.764282 
	C750.194824,1799.973633 749.156738,1800.182861 746.366943,1800.204102 
	C738.888000,1800.883179 731.409058,1801.562134 723.225037,1801.789307 
	C722.190735,1801.993652 721.156433,1802.197876 718.423096,1802.219482 
	C711.593445,1802.885010 704.763733,1803.550415 697.103943,1803.734985 
	C695.625916,1804.160278 694.147888,1804.585571 692.510559,1805.068481 
	C692.510559,1805.068481 692.364807,1804.982178 690.525085,1804.545166 
	C684.327515,1805.113037 678.130005,1805.680908 671.231506,1805.785034 
	C670.194458,1805.996704 669.157410,1806.208374 666.412781,1806.265381 
	C660.253418,1806.924194 654.094116,1807.583130 647.231384,1807.780640 
	C646.193726,1807.993408 645.156128,1808.206177 642.471558,1808.260254 
	C636.968262,1808.885864 631.464966,1809.511475 625.257568,1809.664917 
	C624.208923,1809.906006 623.160217,1810.147095 620.430176,1810.215820 
	C614.942322,1810.850342 609.454407,1811.484741 603.250000,1811.669922 
	C602.202698,1811.906250 601.155396,1812.142456 598.403870,1812.226929 
	C580.260010,1814.182495 562.116150,1816.138062 543.249268,1817.656494 
	C542.202881,1817.900269 541.156494,1818.144043 538.396667,1818.235840 
	C478.669434,1825.096924 418.933838,1831.905396 359.761078,1845.845947 
	C356.522278,1868.367188 353.376190,1890.244019 350.058533,1913.313721 
	C357.185883,1912.048950 362.977417,1910.978149 368.784241,1909.997925 
	C423.216919,1900.809814 477.590057,1891.245728 532.107544,1882.591187 
	C571.480896,1876.340820 611.050415,1871.329346 650.525146,1865.713745 
	C662.333679,1864.033813 674.117493,1862.180054 687.484680,1860.744263 
	C697.393982,1859.636108 707.297363,1858.471313 717.213623,1857.429199 
	C772.078979,1851.662476 826.881775,1845.166138 881.834961,1840.410400 
	C928.845947,1836.341919 976.026367,1834.209595 1023.140930,1831.372070 
	C1039.389404,1830.393433 1055.665527,1829.870239 1073.783936,1829.478027 
	C1090.746704,1829.094116 1107.720825,1828.120117 1124.669922,1828.444946 
	C1163.920898,1829.196899 1203.175049,1830.206787 1242.399536,1831.804932 
	C1283.318604,1833.472168 1323.991333,1837.971436 1364.337036,1845.071411 
	C1369.898926,1846.050171 1373.581421,1845.407593 1376.929077,1840.318604 
	C1391.188477,1818.641602 1405.838989,1797.222046 1420.296997,1775.675049 
	C1421.152588,1774.399780 1421.571045,1772.831177 1422.818481,1769.958618 
	C1418.127563,1769.958618 1414.619141,1769.867676 1411.116577,1769.972534 
	C1369.207642,1771.226440 1327.297241,1772.442017 1285.391724,1773.802979 
	C1237.497803,1775.358398 1189.603271,1776.912598 1141.719482,1778.742920 
	C1119.124756,1779.606567 1096.554565,1781.113525 1072.145386,1782.075195 
M928.404053,1330.514160 
	C919.354553,1332.453003 910.305054,1334.391724 901.595337,1336.257812 
	C900.940063,1337.933960 900.440186,1338.817993 900.246399,1339.764771 
	C883.645203,1420.835449 866.854248,1501.868286 850.629639,1583.014404 
	C846.256470,1604.886475 844.001282,1627.107300 848.065247,1649.451294 
	C852.056030,1671.393311 862.053284,1689.678833 881.203796,1701.798096 
	C895.998230,1711.160767 912.463745,1716.338867 931.117371,1719.287231 
	C954.371033,1723.594482 977.814453,1725.399902 1002.286743,1725.379272 
	C1006.931824,1697.761841 1011.355591,1670.753784 1014.174255,1643.385620 
	C1010.132385,1642.360840 1007.246033,1641.691040 1004.394592,1640.895996 
	C987.612488,1636.216553 977.201599,1625.512939 975.329590,1608.025391 
	C974.530457,1600.559937 974.922485,1592.664429 976.426270,1585.301758 
	C992.338745,1507.391357 1008.585083,1429.549316 1024.738525,1351.687988 
	C1027.556885,1338.103027 1030.371338,1324.517212 1033.545044,1309.207397 
	C1024.457275,1310.972168 1016.746643,1312.373901 1009.077759,1313.975952 
	C982.706848,1319.484985 956.350464,1325.063843 928.404053,1330.514160 
M1240.044556,1531.343994 
	C1218.138428,1532.929199 1196.126343,1533.651611 1174.353516,1536.322998 
	C1148.450684,1539.501221 1123.456909,1546.626221 1100.361938,1559.301147 
	C1069.941772,1575.996460 1050.568848,1600.625732 1044.820068,1635.487671 
	C1039.610474,1667.079834 1050.041870,1690.969482 1077.368530,1707.739746 
	C1081.049438,1709.998901 1084.901855,1712.047241 1088.855103,1713.782471 
	C1115.492310,1725.475342 1143.396484,1728.033203 1172.042603,1725.092163 
	C1199.879028,1722.234131 1224.289551,1710.139648 1249.742554,1696.551392 
	C1291.852539,1677.625732 1333.774170,1658.188354 1379.676147,1649.646729 
	C1390.034668,1609.380615 1401.339722,1570.088867 1408.001343,1529.699219 
	C1408.963989,1523.863403 1409.401245,1517.731201 1408.770752,1511.877319 
	C1405.286743,1479.527954 1388.162598,1456.221313 1359.784058,1441.224121 
	C1329.197998,1425.060425 1295.871338,1421.892090 1260.520752,1421.458130 
	C1231.204712,1420.615479 1202.048828,1422.679810 1173.102173,1427.118774 
	C1157.028809,1429.583740 1141.119019,1433.119751 1125.140991,1436.201538 
	C1121.804077,1436.845093 1118.812256,1437.643677 1118.148193,1441.962158 
	C1115.184326,1461.233643 1112.009644,1480.472656 1108.765381,1500.628906 
	C1112.318237,1500.244995 1114.887329,1500.077026 1117.419434,1499.675293 
	C1131.528198,1497.437012 1145.598755,1494.938599 1159.736572,1492.907471 
	C1193.012695,1488.126953 1226.333862,1484.113770 1260.823730,1491.252319 
	C1277.752930,1499.323975 1284.128906,1513.626831 1278.501465,1531.651123 
	C1266.387451,1531.651123 1254.135742,1531.651123 1240.044556,1531.343994 
M608.117859,1643.008911 
	C583.035522,1641.933228 557.884521,1645.065674 532.243286,1642.742798 
	C533.564575,1631.113037 535.884155,1620.813354 540.123657,1610.986694 
	C549.929199,1588.258545 566.897827,1574.071167 591.111816,1568.858887 
	C596.610474,1567.675293 602.318481,1567.464111 609.745056,1567.352051 
	C662.715637,1567.397949 715.686218,1567.453491 768.656799,1567.450073 
	C770.539429,1567.449951 772.422058,1566.867432 774.826660,1566.470093 
	C780.816284,1537.938232 786.736023,1509.739136 792.777344,1480.961304 
	C789.237732,1480.605957 786.978699,1480.181030 784.719849,1480.181519 
	C732.082642,1480.193970 679.445129,1480.188965 626.808472,1480.386475 
	C620.535706,1480.410034 614.267334,1481.581787 606.343079,1482.042969 
	C591.564636,1483.379395 577.973755,1488.627441 563.804199,1495.749878 
	C565.639038,1478.260254 567.358704,1461.869141 569.004150,1446.185059 
	C557.027344,1442.271973 545.767517,1439.304565 535.068481,1434.956665 
	C508.910645,1424.326538 485.998077,1408.285645 464.074554,1390.743408 
	C461.900909,1389.004150 459.563110,1387.470093 456.411621,1385.199585 
	C432.291473,1499.142456 408.467590,1611.685791 384.370667,1725.518921 
	C388.749603,1725.518921 391.988434,1725.519287 395.227264,1725.518799 
	C459.200348,1725.508179 523.173462,1725.522095 587.146484,1725.454712 
	C594.797546,1725.446655 602.448059,1724.997681 611.628479,1725.277222 
	C612.955322,1725.374512 614.282104,1725.556885 615.608948,1725.557007 
	C667.877747,1725.563477 720.146545,1725.560303 772.415344,1725.522461 
	C774.694397,1725.520874 776.973206,1725.182251 780.176270,1724.927002 
	C784.406372,1697.391357 788.613098,1670.007690 792.943176,1641.821289 
	C789.413330,1641.821289 787.459351,1641.814331 785.505371,1641.822266 
	C734.238831,1642.028931 682.971985,1642.195801 631.705933,1642.492310 
	C624.424316,1642.534424 617.146423,1643.207031 608.117859,1643.008911 
M1974.473633,1426.577393 
	C1956.857910,1430.488647 1939.762329,1435.974731 1923.624268,1444.104980 
	C1871.868042,1470.179321 1836.824341,1510.468872 1824.806274,1567.580566 
	C1805.353638,1660.022339 1787.709839,1752.844849 1769.336670,1845.513428 
	C1768.916748,1847.630615 1768.906250,1849.828857 1768.709473,1851.940186 
	C1780.899780,1853.861816 1889.676514,1853.385254 1897.504028,1851.330078 
	C1907.519653,1801.855347 1917.595215,1752.084351 1927.561768,1702.851440 
	C1944.421753,1708.060181 1960.213501,1712.938843 1977.300415,1718.711304 
	C1980.487549,1719.484497 1983.656250,1720.346558 1986.864990,1721.016602 
	C2007.581909,1725.342773 2028.688477,1726.234253 2049.424316,1723.388062 
	C2091.001465,1717.681152 2125.599609,1697.982178 2152.621338,1665.896851 
	C2181.403320,1631.721069 2198.630859,1592.733032 2197.600098,1547.247681 
	C2197.066162,1523.689087 2192.238037,1500.975830 2179.433594,1480.621704 
	C2162.295654,1453.378418 2136.311279,1438.841309 2106.359375,1430.228149 
	C2088.387451,1425.060059 2069.931396,1422.740356 2051.307129,1421.218750 
	C2025.878296,1419.140991 2000.790283,1420.556396 1974.473633,1426.577393 
M2364.531006,1538.260986 
	C2360.912842,1538.784546 2357.299072,1539.343628 2353.675537,1539.825806 
	C2330.109863,1542.961548 2307.230713,1548.768433 2285.671875,1558.844604 
	C2249.452637,1575.772583 2226.010498,1602.646484 2220.823975,1643.571777 
	C2217.846680,1667.061768 2223.670410,1687.308472 2242.041260,1702.820190 
	C2248.331055,1708.131348 2255.508545,1712.702026 2262.907471,1716.332642 
	C2290.061279,1729.656250 2319.069580,1732.495728 2348.641357,1728.849243 
	C2360.668213,1727.366211 2372.938232,1724.679443 2384.110352,1720.120972 
	C2405.484131,1711.400391 2426.027588,1700.670654 2447.139160,1691.276978 
	C2480.300049,1676.521729 2513.604004,1662.045410 2549.596924,1655.345703 
	C2554.418213,1654.448120 2556.861328,1652.176270 2558.047607,1647.167969 
	C2566.253174,1612.526978 2574.896484,1577.989990 2583.180664,1543.367310 
	C2593.460693,1500.401123 2570.617920,1463.899780 2538.755859,1446.372070 
	C2523.398926,1437.924072 2506.975342,1432.796143 2489.770508,1429.992554 
	C2462.062988,1425.477539 2434.201172,1424.566040 2406.162109,1425.742920 
	C2371.112793,1427.213867 2336.623291,1432.216064 2302.451172,1439.945312 
	C2297.060059,1441.164673 2294.791992,1443.553467 2294.028076,1449.112183 
	C2291.900146,1464.597290 2289.018555,1479.977539 2286.602051,1495.425415 
	C2286.169922,1498.188110 2286.540527,1501.076416 2286.540527,1504.535156 
	C2303.890137,1501.864502 2320.302246,1499.289429 2336.730225,1496.820312 
	C2364.111816,1492.704590 2391.606934,1489.743042 2419.312988,1492.033081 
	C2426.796875,1492.651733 2434.585449,1494.355713 2441.387451,1497.432861 
	C2454.868896,1503.531738 2460.557373,1520.986816 2454.404541,1535.067871 
	C2426.334473,1534.771729 2398.010986,1533.705444 2369.219971,1537.773315 
	C2368.207764,1538.008789 2367.195801,1538.244263 2364.531006,1538.260986 
M1467.009766,1853.021606 
	C1495.004639,1853.021973 1522.999512,1853.074707 1550.994263,1853.003052 
	C1568.259277,1852.958862 1564.263916,1854.585938 1573.005005,1840.843262 
	C1658.112305,1707.038696 1743.100464,1573.158691 1828.107178,1439.290283 
	C1829.822632,1436.588745 1831.353760,1433.770142 1833.831787,1429.534546 
	C1828.629517,1429.296997 1825.081421,1428.998169 1821.533081,1428.994263 
	C1788.205444,1428.957764 1754.870605,1429.350464 1721.554932,1428.720093 
	C1712.571899,1428.550171 1707.964233,1431.686157 1703.494141,1439.088013 
	C1674.906494,1486.425049 1645.836060,1533.470459 1616.871826,1580.579590 
	C1615.602417,1582.644409 1613.821777,1584.394897 1611.256836,1587.549194 
	C1596.848877,1533.958496 1582.897461,1482.066284 1569.042236,1430.531738 
	C1551.842041,1428.563232 1455.082397,1432.594971 1447.782959,1435.542725 
	C1448.258667,1437.742432 1448.641113,1440.025879 1449.249268,1442.247437 
	C1472.622314,1527.636353 1495.949951,1613.037964 1519.531860,1698.369263 
	C1521.443359,1705.285889 1520.921753,1710.666016 1517.021362,1716.937378 
	C1491.158813,1758.520386 1465.738770,1800.378662 1440.207153,1842.167358 
	C1438.407715,1845.112549 1436.870728,1848.218140 1434.242310,1853.020020 
	C1445.882935,1853.020020 1455.448975,1853.020020 1467.009766,1853.021606 
M2828.875244,1719.963745 
	C2881.584961,1637.019043 2934.308350,1554.083008 2986.989746,1471.120361 
	C2994.482666,1459.320312 3001.772949,1447.391602 3009.139648,1435.511597 
	C3009.299805,1435.253418 3009.356689,1434.834473 3009.270996,1434.547485 
	C3009.184082,1434.257324 3008.860352,1434.038086 3008.306885,1433.408569 
	C3007.401855,1433.305054 3006.125488,1433.032227 3004.849365,1433.031494 
	C2967.857178,1433.009277 2930.864502,1433.114746 2893.873291,1432.910522 
	C2888.093018,1432.878662 2884.962646,1435.160400 2882.037842,1439.970337 
	C2855.039062,1484.373413 2827.793945,1528.626831 2800.611572,1572.918213 
	C2796.869385,1579.015503 2793.079102,1585.083130 2788.182861,1592.985352 
	C2773.552979,1538.580933 2759.503662,1486.335205 2745.554932,1434.463135 
	C2727.622559,1432.668823 2631.636719,1436.585205 2624.125000,1439.352051 
	C2624.473877,1440.918213 2624.763916,1442.536987 2625.196533,1444.116943 
	C2648.576416,1529.505127 2671.857666,1614.920410 2695.525146,1700.228882 
	C2697.949951,1708.970093 2696.964355,1715.666504 2692.108398,1723.426392 
	C2666.309082,1764.652588 2641.122314,1806.262329 2615.765869,1847.765137 
	C2614.315186,1850.139282 2613.235840,1852.740356 2611.451172,1856.296631 
	C2616.306641,1856.296631 2619.616211,1856.296753 2622.925781,1856.296753 
	C2659.251465,1856.296143 2695.579590,1856.070068 2731.900879,1856.478760 
	C2739.461426,1856.563721 2743.829590,1854.393677 2747.912842,1847.853760 
	C2774.374268,1805.466064 2801.320557,1763.381226 2828.875244,1719.963745 
M1355.162964,1670.078613 
	C1320.390869,1678.344116 1252.870117,1710.693604 1244.762573,1723.711670 
	C1248.602905,1723.711670 1251.834839,1723.693604 1255.066650,1723.714600 
	C1278.049805,1723.863770 1301.033081,1724.015869 1324.016235,1724.182861 
	C1326.678955,1724.202271 1329.342896,1724.276367 1332.002930,1724.397339 
	C1341.291138,1724.819214 1350.583496,1725.184814 1359.863281,1725.750244 
	C1364.694458,1726.044678 1367.094727,1724.205688 1368.014893,1719.261475 
	C1369.897339,1709.146606 1372.326172,1699.133301 1374.535522,1689.079468 
	C1376.138550,1681.784912 1377.750488,1674.492310 1379.754517,1665.401978 
	C1370.931885,1667.123047 1363.875732,1668.499634 1355.162964,1670.078613 
M2554.339355,1677.834961 
	C2554.666504,1675.482300 2554.993652,1673.129639 2555.452881,1669.825562 
	C2504.665039,1676.907593 2461.921387,1699.031128 2419.380859,1725.938232 
	C2422.108154,1727.006958 2422.947021,1727.612061 2423.797363,1727.629028 
	C2460.979004,1728.373047 2498.164307,1728.957520 2535.341553,1729.872437 
	C2541.300293,1730.018921 2543.667236,1727.450073 2544.778564,1722.156128 
	C2547.770508,1707.901001 2550.964844,1693.688354 2554.339355,1677.834961 
z"/>
<path fill="#677BB4" opacity="1.000000" stroke="none" 
	d="
M1466.012451,1853.020752 
	C1455.448975,1853.020020 1445.882935,1853.020020 1434.242310,1853.020020 
	C1436.870728,1848.218140 1438.407715,1845.112549 1440.207153,1842.167358 
	C1465.738770,1800.378662 1491.158813,1758.520386 1517.021362,1716.937378 
	C1520.921753,1710.666016 1521.443359,1705.285889 1519.531860,1698.369263 
	C1495.949951,1613.037964 1472.622314,1527.636353 1449.249268,1442.247437 
	C1448.641113,1440.025879 1448.258667,1437.742432 1447.782959,1435.542725 
	C1455.082397,1432.594971 1551.842041,1428.563232 1569.042236,1430.531738 
	C1582.897461,1482.066284 1596.848877,1533.958496 1611.256836,1587.549194 
	C1613.821777,1584.394897 1615.602417,1582.644409 1616.871826,1580.579590 
	C1645.836060,1533.470459 1674.906494,1486.425049 1703.494141,1439.088013 
	C1707.964233,1431.686157 1712.571899,1428.550171 1721.554932,1428.720093 
	C1754.870605,1429.350464 1788.205444,1428.957764 1821.533081,1428.994263 
	C1825.081421,1428.998169 1828.629517,1429.296997 1833.831787,1429.534546 
	C1831.353760,1433.770142 1829.822632,1436.588745 1828.107178,1439.290283 
	C1743.100464,1573.158691 1658.112305,1707.038696 1573.005005,1840.843262 
	C1564.263916,1854.585938 1568.259277,1852.958862 1550.994263,1853.003052 
	C1522.999512,1853.074707 1495.004639,1853.021973 1466.012451,1853.020752 
z"/>
<path fill="#7F65A3" opacity="1.000000" stroke="none" 
	d="
M2828.491699,1720.580444 
	C2801.320557,1763.381226 2774.374268,1805.466064 2747.912842,1847.853760 
	C2743.829590,1854.393677 2739.461426,1856.563721 2731.900879,1856.478760 
	C2695.579590,1856.070068 2659.251465,1856.296143 2622.925781,1856.296753 
	C2619.616211,1856.296753 2616.306641,1856.296631 2611.451172,1856.296631 
	C2613.235840,1852.740356 2614.315186,1850.139282 2615.765869,1847.765137 
	C2641.122314,1806.262329 2666.309082,1764.652588 2692.108398,1723.426392 
	C2696.964355,1715.666504 2697.949951,1708.970093 2695.525146,1700.228882 
	C2671.857666,1614.920410 2648.576416,1529.505127 2625.196533,1444.116943 
	C2624.763916,1442.536987 2624.473877,1440.918213 2624.125000,1439.352051 
	C2631.636719,1436.585205 2727.622559,1432.668823 2745.554932,1434.463135 
	C2759.503662,1486.335205 2773.552979,1538.580933 2788.182861,1592.985352 
	C2793.079102,1585.083130 2796.869385,1579.015503 2800.611572,1572.918213 
	C2827.793945,1528.626831 2855.039062,1484.373413 2882.037842,1439.970337 
	C2884.962646,1435.160400 2888.093018,1432.878662 2893.873291,1432.910522 
	C2930.864502,1433.114746 2967.857178,1433.009277 3004.849365,1433.031494 
	C3006.125488,1433.032227 3007.401855,1433.305054 3008.306885,1433.408569 
	C3008.860352,1434.038086 3009.184082,1434.257324 3009.270996,1434.547485 
	C3009.356689,1434.834473 3009.299805,1435.253418 3009.139648,1435.511597 
	C3001.772949,1447.391602 2994.482666,1459.320312 2986.989746,1471.120361 
	C2934.308350,1554.083008 2881.584961,1637.019043 2828.491699,1720.580444 
z"/>
<path fill="#7B6CA9" opacity="1.000000" stroke="none" 
	d="
M2369.923340,1538.200073 
	C2398.010986,1533.705444 2426.334473,1534.771729 2454.404541,1535.067871 
	C2460.557373,1520.986816 2454.868896,1503.531738 2441.387451,1497.432861 
	C2434.585449,1494.355713 2426.796875,1492.651733 2419.312988,1492.033081 
	C2391.606934,1489.743042 2364.111816,1492.704590 2336.730225,1496.820312 
	C2320.302246,1499.289429 2303.890137,1501.864502 2286.540527,1504.535156 
	C2286.540527,1501.076416 2286.169922,1498.188110 2286.602051,1495.425415 
	C2289.018555,1479.977539 2291.900146,1464.597290 2294.028076,1449.112183 
	C2294.791992,1443.553467 2297.060059,1441.164673 2302.451172,1439.945312 
	C2336.623291,1432.216064 2371.112793,1427.213867 2406.162109,1425.742920 
	C2434.201172,1424.566040 2462.062988,1425.477539 2489.770508,1429.992554 
	C2506.975342,1432.796143 2523.398926,1437.924072 2538.755859,1446.372070 
	C2570.617920,1463.899780 2593.460693,1500.401123 2583.180664,1543.367310 
	C2574.896484,1577.989990 2566.253174,1612.526978 2558.047607,1647.167969 
	C2556.861328,1652.176270 2554.418213,1654.448120 2549.596924,1655.345703 
	C2513.604004,1662.045410 2480.300049,1676.521729 2447.139160,1691.276978 
	C2426.027588,1700.670654 2405.484131,1711.400391 2384.110352,1720.120972 
	C2372.938232,1724.679443 2360.668213,1727.366211 2348.641357,1728.849243 
	C2319.069580,1732.495728 2290.061279,1729.656250 2262.907471,1716.332642 
	C2255.508545,1712.702026 2248.331055,1708.131348 2242.041260,1702.820190 
	C2223.670410,1687.308472 2217.846680,1667.061768 2220.823975,1643.571777 
	C2226.010498,1602.646484 2249.452637,1575.772583 2285.671875,1558.844604 
	C2307.230713,1548.768433 2330.109863,1542.961548 2353.675537,1539.825806 
	C2357.299072,1539.343628 2360.912842,1538.784546 2365.663086,1538.743286 
	C2367.838135,1538.883789 2368.880615,1538.541870 2369.923340,1538.200073 
M2358.842041,1611.786133 
	C2356.086914,1614.180298 2353.048340,1616.319458 2350.625977,1619.012939 
	C2340.406006,1630.378174 2341.398926,1645.234619 2353.062500,1655.175171 
	C2359.584229,1660.733398 2367.346680,1663.417603 2375.880859,1664.132080 
	C2392.892334,1665.556152 2407.260986,1658.768066 2419.879395,1648.623779 
	C2436.705322,1635.096802 2443.489258,1616.594849 2443.845215,1594.218262 
	C2433.372803,1594.218262 2423.781982,1593.643311 2414.283936,1594.338867 
	C2395.007324,1595.750610 2376.139893,1599.014526 2358.842041,1611.786133 
z"/>
<path fill="#7074B1" opacity="1.000000" stroke="none" 
	d="
M1976.005249,1717.817505 
	C1960.213501,1712.938843 1944.421753,1708.060181 1927.561768,1702.851440 
	C1917.595215,1752.084351 1907.519653,1801.855347 1897.504028,1851.330078 
	C1889.676514,1853.385254 1780.899780,1853.861816 1768.709473,1851.940186 
	C1768.906250,1849.828857 1768.916748,1847.630615 1769.336670,1845.513428 
	C1787.709839,1752.844849 1805.353638,1660.022339 1824.806274,1567.580566 
	C1836.824341,1510.468872 1871.868042,1470.179321 1923.624268,1444.104980 
	C1939.762329,1435.974731 1956.857910,1430.488647 1975.236572,1427.505981 
	C1975.999756,1451.294189 1975.854004,1474.155396 1976.100586,1497.012329 
	C1976.163818,1502.879883 1977.464966,1508.734253 1977.859619,1515.142700 
	C1969.047974,1522.527832 1963.501587,1531.375977 1959.187012,1541.274780 
	C1953.154297,1555.114624 1949.088745,1569.524292 1948.896729,1584.516479 
	C1948.605957,1607.233032 1952.731445,1628.374023 1976.048462,1640.691650 
	C1976.019653,1667.036011 1976.012451,1692.426758 1976.005249,1717.817505 
z"/>
<path fill="#4F70AF" opacity="1.000000" stroke="none" 
	d="
M610.098816,1724.753174 
	C602.448059,1724.997681 594.797546,1725.446655 587.146484,1725.454712 
	C523.173462,1725.522095 459.200348,1725.508179 395.227264,1725.518799 
	C391.988434,1725.519287 388.749603,1725.518921 384.370667,1725.518921 
	C408.467590,1611.685791 432.291473,1499.142456 456.411621,1385.199585 
	C459.563110,1387.470093 461.900909,1389.004150 464.074554,1390.743408 
	C485.998077,1408.285645 508.910645,1424.326538 535.068481,1434.956665 
	C545.767517,1439.304565 557.027344,1442.271973 569.004150,1446.185059 
	C567.358704,1461.869141 565.639038,1478.260254 563.804199,1495.749878 
	C577.973755,1488.627441 591.564636,1483.379395 607.288208,1482.946045 
	C608.819031,1486.407959 609.976868,1488.983765 609.901917,1491.523193 
	C609.161316,1516.615234 612.088928,1541.807251 607.930115,1566.805420 
	C602.318481,1567.464111 596.610474,1567.675293 591.111816,1568.858887 
	C566.897827,1574.071167 549.929199,1588.258545 540.123657,1610.986694 
	C535.884155,1620.813354 533.564575,1631.113037 532.243286,1642.742798 
	C557.884521,1645.065674 583.035522,1641.933228 609.041748,1644.116333 
	C610.010071,1671.733521 610.054443,1698.243408 610.098816,1724.753174 
z"/>
<path fill="#7371AE" opacity="1.000000" stroke="none" 
	d="
M1978.197510,1514.594604 
	C1977.464966,1508.734253 1976.163818,1502.879883 1976.100586,1497.012329 
	C1975.854004,1474.155396 1975.999756,1451.294189 1975.997314,1427.544922 
	C2000.790283,1420.556396 2025.878296,1419.140991 2051.307129,1421.218750 
	C2069.931396,1422.740356 2088.387451,1425.060059 2106.359375,1430.228149 
	C2136.311279,1438.841309 2162.295654,1453.378418 2179.433594,1480.621704 
	C2192.238037,1500.975830 2197.066162,1523.689087 2197.600098,1547.247681 
	C2198.630859,1592.733032 2181.403320,1631.721069 2152.621338,1665.896851 
	C2125.599609,1697.982178 2091.001465,1717.681152 2049.424316,1723.388062 
	C2028.688477,1726.234253 2007.581909,1725.342773 1986.864990,1721.016602 
	C1983.656250,1720.346558 1980.487549,1719.484497 1976.652832,1718.264404 
	C1976.012451,1692.426758 1976.019653,1667.036011 1976.888916,1640.752441 
	C1987.638428,1640.592529 1997.563477,1642.248657 2007.405029,1641.848877 
	C2023.363159,1641.200806 2036.829468,1634.408569 2046.931519,1621.723633 
	C2056.320801,1609.933594 2064.027100,1597.185425 2068.803223,1582.776611 
	C2073.275391,1569.284180 2074.772705,1555.732178 2072.083008,1541.541504 
	C2067.205811,1515.808960 2048.740234,1500.036865 2022.583740,1499.845825 
	C2006.057495,1499.725098 1991.661621,1505.674438 1978.197510,1514.594604 
z"/>
<path fill="#5178B4" opacity="1.000000" stroke="none" 
	d="
M1261.983154,1422.063599 
	C1295.871338,1421.892090 1329.197998,1425.060425 1359.784058,1441.224121 
	C1388.162598,1456.221313 1405.286743,1479.527954 1408.770752,1511.877319 
	C1409.401245,1517.731201 1408.963989,1523.863403 1408.001343,1529.699219 
	C1401.339722,1570.088867 1390.034668,1609.380615 1379.676147,1649.646729 
	C1333.774170,1658.188354 1291.852539,1677.625732 1248.930176,1695.713013 
	C1248.078491,1691.249512 1248.073486,1687.623535 1247.993774,1683.999268 
	C1247.706909,1670.953613 1249.846436,1657.640015 1244.087158,1644.686035 
	C1260.089600,1629.956177 1266.796143,1612.014893 1267.481567,1590.535156 
	C1260.432617,1590.182129 1254.208984,1589.870361 1247.987793,1588.648926 
	C1247.993530,1582.127686 1247.998291,1576.516113 1247.999634,1570.904419 
	C1248.002563,1557.502075 1249.428589,1543.877686 1241.884155,1531.651123 
	C1254.135742,1531.651123 1266.387451,1531.651123 1278.501465,1531.651123 
	C1284.128906,1513.626831 1277.752930,1499.323975 1260.394287,1489.806763 
	C1260.681152,1466.263306 1258.315308,1444.071655 1261.983154,1422.063599 
z"/>
<path fill="#5178B4" opacity="1.000000" stroke="none" 
	d="
M929.988586,1330.615967 
	C956.350464,1325.063843 982.706848,1319.484985 1009.077759,1313.975952 
	C1016.746643,1312.373901 1024.457275,1310.972168 1033.545044,1309.207397 
	C1030.371338,1324.517212 1027.556885,1338.103027 1024.738525,1351.687988 
	C1008.585083,1429.549316 992.338745,1507.391357 976.426270,1585.301758 
	C974.922485,1592.664429 974.530457,1600.559937 975.329590,1608.025391 
	C977.201599,1625.512939 987.612488,1636.216553 1004.394592,1640.895996 
	C1007.246033,1641.691040 1010.132385,1642.360840 1014.174255,1643.385620 
	C1011.355591,1670.753784 1006.931824,1697.761841 1002.286743,1725.379272 
	C977.814453,1725.399902 954.371033,1723.594482 930.536133,1717.864746 
	C929.966064,1587.833374 929.977356,1459.224731 929.988586,1330.615967 
z"/>
<path fill="#4F70AF" opacity="1.000000" stroke="none" 
	d="
M1243.753418,1645.229004 
	C1249.846436,1657.640015 1247.706909,1670.953613 1247.993774,1683.999268 
	C1248.073486,1687.623535 1248.078491,1691.249512 1248.197510,1695.882568 
	C1224.289551,1710.139648 1199.879028,1722.234131 1172.042603,1725.092163 
	C1143.396484,1728.033203 1115.492310,1725.475342 1088.855103,1713.782471 
	C1084.901855,1712.047241 1081.049438,1709.998901 1077.368530,1707.739746 
	C1050.041870,1690.969482 1039.610474,1667.079834 1044.820068,1635.487671 
	C1050.568848,1600.625732 1069.941772,1575.996460 1100.361938,1559.301147 
	C1123.456909,1546.626221 1148.450684,1539.501221 1174.353516,1536.322998 
	C1196.126343,1533.651611 1218.138428,1532.929199 1240.964355,1531.497559 
	C1249.428589,1543.877686 1248.002563,1557.502075 1247.999634,1570.904419 
	C1247.998291,1576.516113 1247.993530,1582.127686 1247.099365,1588.817627 
	C1237.958008,1590.665039 1229.638062,1590.996460 1221.472168,1592.296143 
	C1205.503784,1594.837646 1190.659302,1600.403320 1178.182983,1611.055542 
	C1161.082153,1625.656128 1163.844971,1646.168823 1184.136841,1656.024658 
	C1194.113159,1660.870483 1204.811890,1662.213257 1215.105103,1658.640015 
	C1225.012329,1655.200684 1234.231812,1649.779419 1243.753418,1645.229004 
z"/>
<path fill="#4F70AF" opacity="1.000000" stroke="none" 
	d="
M929.196289,1330.565063 
	C929.977356,1459.224731 929.966064,1587.833374 929.917053,1717.405640 
	C912.463745,1716.338867 895.998230,1711.160767 881.203796,1701.798096 
	C862.053284,1689.678833 852.056030,1671.393311 848.065247,1649.451294 
	C844.001282,1627.107300 846.256470,1604.886475 850.629639,1583.014404 
	C866.854248,1501.868286 883.645203,1420.835449 900.246399,1339.764771 
	C900.440186,1338.817993 900.940063,1337.933960 901.595337,1336.257812 
	C910.305054,1334.391724 919.354553,1332.453003 929.196289,1330.565063 
z"/>
<path fill="#4D6BAB" opacity="1.000000" stroke="none" 
	d="
M625.961670,1810.136963 
	C631.464966,1809.511475 636.968262,1808.885864 643.593872,1808.731323 
	C645.789062,1808.882202 646.861938,1808.562134 647.934753,1808.241943 
	C654.094116,1807.583130 660.253418,1806.924194 667.564392,1806.734131 
	C669.788147,1806.884888 670.860291,1806.566772 671.932434,1806.248779 
	C678.130005,1805.680908 684.327515,1805.113037 691.252808,1805.571777 
	C684.632751,1811.983765 683.131165,1819.396606 683.916992,1828.006104 
	C684.900085,1838.777100 685.275085,1849.603394 685.912598,1860.405884 
	C674.117493,1862.180054 662.333679,1864.033813 650.525146,1865.713745 
	C611.050415,1871.329346 571.480896,1876.340820 532.107544,1882.591187 
	C477.590057,1891.245728 423.216919,1900.809814 368.784241,1909.997925 
	C362.977417,1910.978149 357.185883,1912.048950 350.058533,1913.313721 
	C353.376190,1890.244019 356.522278,1868.367188 359.761078,1845.845947 
	C418.933838,1831.905396 478.669434,1825.096924 539.562012,1818.707642 
	C541.808960,1818.817505 542.890625,1818.455566 543.972290,1818.093628 
	C562.116150,1816.138062 580.260010,1814.182495 599.562256,1812.699463 
	C601.802673,1812.821167 602.884644,1812.470215 603.966553,1812.119141 
	C609.454407,1811.484741 614.942322,1810.850342 621.575256,1810.697754 
	C623.800781,1810.832031 624.881226,1810.484497 625.961670,1810.136963 
z"/>
<path fill="#4F70AF" opacity="1.000000" stroke="none" 
	d="
M686.698669,1860.575073 
	C685.275085,1849.603394 684.900085,1838.777100 683.916992,1828.006104 
	C683.131165,1819.396606 684.632751,1811.983765 692.172607,1805.790283 
	C692.364807,1804.982178 692.510559,1805.068481 693.282776,1805.323242 
	C695.348022,1805.123901 696.641052,1804.669922 697.934082,1804.215820 
	C704.763733,1803.550415 711.593445,1802.885010 719.570557,1802.702148 
	C721.788696,1802.870361 722.859436,1802.555786 723.930115,1802.241211 
	C731.409058,1801.562134 738.888000,1800.883179 747.541260,1800.690186 
	C749.788086,1800.860474 750.860596,1800.544678 751.933105,1800.228760 
	C779.166443,1798.244873 806.384155,1796.006592 833.636597,1794.334595 
	C877.524597,1791.641846 921.434021,1789.296509 965.337524,1786.859741 
	C980.967346,1785.992188 996.602966,1785.215210 1012.241577,1784.523438 
	C1032.206543,1783.640259 1052.177124,1782.885376 1073.039307,1783.024536 
	C1073.288696,1789.479736 1072.270264,1794.973022 1072.083130,1800.494385 
	C1071.759766,1810.033325 1071.952637,1819.589844 1071.928955,1829.138916 
	C1055.665527,1829.870239 1039.389404,1830.393433 1023.140930,1831.372070 
	C976.026367,1834.209595 928.845947,1836.341919 881.834961,1840.410400 
	C826.881775,1845.166138 772.078979,1851.662476 717.213623,1857.429199 
	C707.297363,1858.471313 697.393982,1859.636108 686.698669,1860.575073 
z"/>
<path fill="#587BB5" opacity="1.000000" stroke="none" 
	d="
M1072.856445,1829.308472 
	C1071.952637,1819.589844 1071.759766,1810.033325 1072.083130,1800.494385 
	C1072.270264,1794.973022 1073.288696,1789.479736 1073.953125,1783.151489 
	C1096.554565,1781.113525 1119.124756,1779.606567 1141.719482,1778.742920 
	C1189.603271,1776.912598 1237.497803,1775.358398 1285.391724,1773.802979 
	C1327.297241,1772.442017 1369.207642,1771.226440 1411.116577,1769.972534 
	C1414.619141,1769.867676 1418.127563,1769.958618 1422.818481,1769.958618 
	C1421.571045,1772.831177 1421.152588,1774.399780 1420.296997,1775.675049 
	C1405.838989,1797.222046 1391.188477,1818.641602 1376.929077,1840.318604 
	C1373.581421,1845.407593 1369.898926,1846.050171 1364.337036,1845.071411 
	C1323.991333,1837.971436 1283.318604,1833.472168 1242.399536,1831.804932 
	C1203.175049,1830.206787 1163.920898,1829.196899 1124.669922,1828.444946 
	C1107.720825,1828.120117 1090.746704,1829.094116 1072.856445,1829.308472 
z"/>
<path fill="#5178B4" opacity="1.000000" stroke="none" 
	d="
M608.837585,1567.078735 
	C612.088928,1541.807251 609.161316,1516.615234 609.901917,1491.523193 
	C609.976868,1488.983765 608.819031,1486.407959 608.115112,1483.035156 
	C614.267334,1481.581787 620.535706,1480.410034 626.808472,1480.386475 
	C679.445129,1480.188965 732.082642,1480.193970 784.719849,1480.181519 
	C786.978699,1480.181030 789.237732,1480.605957 792.777344,1480.961304 
	C786.736023,1509.739136 780.816284,1537.938232 774.826660,1566.470093 
	C772.422058,1566.867432 770.539429,1567.449951 768.656799,1567.450073 
	C715.686218,1567.453491 662.715637,1567.397949 608.837585,1567.078735 
z"/>
<path fill="#587BB5" opacity="1.000000" stroke="none" 
	d="
M610.863647,1725.015137 
	C610.054443,1698.243408 610.010071,1671.733521 609.916199,1644.405762 
	C617.146423,1643.207031 624.424316,1642.534424 631.705933,1642.492310 
	C682.971985,1642.195801 734.238831,1642.028931 785.505371,1641.822266 
	C787.459351,1641.814331 789.413330,1641.821289 792.943176,1641.821289 
	C788.613098,1670.007690 784.406372,1697.391357 780.176270,1724.927002 
	C776.973206,1725.182251 774.694397,1725.520874 772.415344,1725.522461 
	C720.146545,1725.560303 667.877747,1725.563477 615.608948,1725.557007 
	C614.282104,1725.556885 612.955322,1725.374512 610.863647,1725.015137 
z"/>
<path fill="#5178B4" opacity="1.000000" stroke="none" 
	d="
M679.986816,1332.755615 
	C683.305481,1332.592163 686.624023,1332.287720 689.942749,1332.286499 
	C740.929871,1332.267578 791.916931,1332.288208 842.904053,1332.299561 
	C846.160583,1332.300293 849.417114,1332.299561 853.761902,1332.299561 
	C848.652954,1360.272339 843.770447,1387.005737 838.655212,1415.013184 
	C786.175598,1415.901001 734.000122,1415.770020 680.906250,1414.549805 
	C679.987549,1386.567505 679.987183,1359.661499 679.986816,1332.755615 
z"/>
<path fill="#4F70AF" opacity="1.000000" stroke="none" 
	d="
M679.203003,1332.581299 
	C679.987183,1359.661499 679.987549,1386.567505 679.987305,1414.357666 
	C675.897583,1415.271973 671.808533,1415.302002 666.707642,1414.470703 
	C660.176697,1408.332275 658.224548,1408.580566 655.937256,1414.850586 
	C599.278687,1419.964233 548.436584,1405.511108 504.600586,1368.863770 
	C492.404205,1358.667480 481.535614,1346.882812 469.999908,1334.747070 
	C469.941925,1333.667236 470.025909,1332.785645 470.025909,1332.785645 
	C472.001129,1332.614868 473.976379,1332.294189 475.951538,1332.294678 
	C535.342407,1332.309937 594.733276,1332.357300 655.076050,1333.312256 
	C656.582947,1340.152832 660.899353,1340.001709 665.220032,1339.991333 
	C670.111694,1339.979614 672.142334,1337.399780 672.038269,1332.748413 
	C674.165283,1332.634521 676.292236,1332.520752 679.203003,1332.581299 
z"/>
<path fill="#4F70AF" opacity="1.000000" stroke="none" 
	d="
M1261.251953,1421.760864 
	C1258.315308,1444.071655 1260.681152,1466.263306 1259.936401,1489.317749 
	C1226.333862,1484.113770 1193.012695,1488.126953 1159.736572,1492.907471 
	C1145.598755,1494.938599 1131.528198,1497.437012 1117.419434,1499.675293 
	C1114.887329,1500.077026 1112.318237,1500.244995 1108.765381,1500.628906 
	C1112.009644,1480.472656 1115.184326,1461.233643 1118.148193,1441.962158 
	C1118.812256,1437.643677 1121.804077,1436.845093 1125.140991,1436.201538 
	C1141.119019,1433.119751 1157.028809,1429.583740 1173.102173,1427.118774 
	C1202.048828,1422.679810 1231.204712,1420.615479 1261.251953,1421.760864 
z"/>
<path fill="#9ABADC" opacity="1.000000" stroke="none" 
	d="
M1355.991211,1669.977295 
	C1363.875732,1668.499634 1370.931885,1667.123047 1379.754517,1665.401978 
	C1377.750488,1674.492310 1376.138550,1681.784912 1374.535522,1689.079468 
	C1372.326172,1699.133301 1369.897339,1709.146606 1368.014893,1719.261475 
	C1367.094727,1724.205688 1364.694458,1726.044678 1359.863281,1725.750244 
	C1350.583496,1725.184814 1341.291138,1724.819214 1332.002930,1724.397339 
	C1329.342896,1724.276367 1326.678955,1724.202271 1324.016235,1724.182861 
	C1301.033081,1724.015869 1278.049805,1723.863770 1255.066650,1723.714600 
	C1251.834839,1723.693604 1248.602905,1723.711670 1244.762573,1723.711670 
	C1252.870117,1710.693604 1320.390869,1678.344116 1355.991211,1669.977295 
z"/>
<path fill="#C1B1D2" opacity="1.000000" stroke="none" 
	d="
M2554.208984,1678.646973 
	C2550.964844,1693.688354 2547.770508,1707.901001 2544.778564,1722.156128 
	C2543.667236,1727.450073 2541.300293,1730.018921 2535.341553,1729.872437 
	C2498.164307,1728.957520 2460.979004,1728.373047 2423.797363,1727.629028 
	C2422.947021,1727.612061 2422.108154,1727.006958 2419.380859,1725.938232 
	C2461.921387,1699.031128 2504.665039,1676.907593 2555.452881,1669.825562 
	C2554.993652,1673.129639 2554.666504,1675.482300 2554.208984,1678.646973 
z"/>
<path fill="#5178B4" opacity="1.000000" stroke="none" 
	d="
M671.161316,1332.558838 
	C672.142334,1337.399780 670.111694,1339.979614 665.220032,1339.991333 
	C660.899353,1340.001709 656.582947,1340.152832 655.994629,1333.487061 
	C660.735657,1332.622559 665.510010,1332.495850 671.161316,1332.558838 
z"/>
<path fill="#5178B4" opacity="1.000000" stroke="none" 
	d="
M656.753662,1415.107910 
	C658.224548,1408.580566 660.176697,1408.332275 665.864746,1414.230225 
	C663.212463,1415.022339 660.391235,1415.193848 656.753662,1415.107910 
z"/>
<path fill="#7371AE" opacity="1.000000" stroke="none" 
	d="
M2369.571777,1537.986694 
	C2368.880615,1538.541870 2367.838135,1538.883789 2366.489502,1538.852783 
	C2367.195801,1538.244263 2368.207764,1538.008789 2369.571777,1537.986694 
z"/>
<path fill="#677BB4" opacity="1.000000" stroke="none" 
	d="
M751.583008,1799.996582 
	C750.860596,1800.544678 749.788086,1800.860474 748.417175,1800.784180 
	C749.156738,1800.182861 750.194824,1799.973633 751.583008,1799.996582 
z"/>
<path fill="#677BB4" opacity="1.000000" stroke="none" 
	d="
M723.577576,1802.015259 
	C722.859436,1802.555786 721.788696,1802.870361 720.420044,1802.793457 
	C721.156433,1802.197876 722.190735,1801.993652 723.577576,1802.015259 
z"/>
<path fill="#677BB4" opacity="1.000000" stroke="none" 
	d="
M697.519043,1803.975342 
	C696.641052,1804.669922 695.348022,1805.123901 693.362427,1805.294434 
	C694.147888,1804.585571 695.625916,1804.160278 697.519043,1803.975342 
z"/>
<path fill="#677BB4" opacity="1.000000" stroke="none" 
	d="
M671.581970,1806.016846 
	C670.860291,1806.566772 669.788147,1806.884888 668.418152,1806.811523 
	C669.157410,1806.208374 670.194458,1805.996704 671.581970,1806.016846 
z"/>
<path fill="#677BB4" opacity="1.000000" stroke="none" 
	d="
M647.583069,1808.011230 
	C646.861938,1808.562134 645.789062,1808.882202 644.417358,1808.810547 
	C645.156128,1808.206177 646.193726,1807.993408 647.583069,1808.011230 
z"/>
<path fill="#677BB4" opacity="1.000000" stroke="none" 
	d="
M625.609619,1809.900879 
	C624.881226,1810.484497 623.800781,1810.832031 622.415894,1810.783936 
	C623.160217,1810.147095 624.208923,1809.906006 625.609619,1809.900879 
z"/>
<path fill="#677BB4" opacity="1.000000" stroke="none" 
	d="
M603.608276,1811.894531 
	C602.884644,1812.470215 601.802673,1812.821167 600.414429,1812.775391 
	C601.155396,1812.142456 602.202698,1811.906250 603.608276,1811.894531 
z"/>
<path fill="#677BB4" opacity="1.000000" stroke="none" 
	d="
M543.610779,1817.875000 
	C542.890625,1818.455566 541.808960,1818.817505 540.418701,1818.783569 
	C541.156494,1818.144043 542.202881,1817.900269 543.610779,1817.875000 
z"/>
<path fill="#5178B4" opacity="1.000000" stroke="none" 
	d="
M469.614136,1332.719604 
	C470.025909,1332.785645 469.941925,1333.667236 469.850494,1334.102905 
	C469.404663,1334.132690 469.016510,1333.748413 468.727234,1333.300415 
	C468.675568,1333.220337 469.033508,1332.875854 469.614136,1332.719604 
z"/>
<path fill="#FFFFFF" opacity="1.000000" stroke="none" 
	d="
M2359.425781,1611.364746 
	C2376.139893,1599.014526 2395.007324,1595.750610 2414.283936,1594.338867 
	C2423.781982,1593.643311 2433.372803,1594.218262 2443.845215,1594.218262 
	C2443.489258,1616.594849 2436.705322,1635.096802 2419.879395,1648.623779 
	C2407.260986,1658.768066 2392.892334,1665.556152 2375.880859,1664.132080 
	C2367.346680,1663.417603 2359.584229,1660.733398 2353.062500,1655.175171 
	C2341.398926,1645.234619 2340.406006,1630.378174 2350.625977,1619.012939 
	C2353.048340,1616.319458 2356.086914,1614.180298 2359.425781,1611.364746 
z"/>
<path fill="#FFFFFF" opacity="1.000000" stroke="none" 
	d="
M1977.859619,1515.142700 
	C1991.661621,1505.674438 2006.057495,1499.725098 2022.583740,1499.845825 
	C2048.740234,1500.036865 2067.205811,1515.808960 2072.083008,1541.541504 
	C2074.772705,1555.732178 2073.275391,1569.284180 2068.803223,1582.776611 
	C2064.027100,1597.185425 2056.320801,1609.933594 2046.931519,1621.723633 
	C2036.829468,1634.408569 2023.363159,1641.200806 2007.405029,1641.848877 
	C1997.563477,1642.248657 1987.638428,1640.592529 1976.910400,1639.798828 
	C1952.731445,1628.374023 1948.605957,1607.233032 1948.896729,1584.516479 
	C1949.088745,1569.524292 1953.154297,1555.114624 1959.187012,1541.274780 
	C1963.501587,1531.375977 1969.047974,1522.527832 1977.859619,1515.142700 
z"/>
<path fill="#FFFFFF" opacity="1.000000" stroke="none" 
	d="
M1244.087158,1644.686035 
	C1234.231812,1649.779419 1225.012329,1655.200684 1215.105103,1658.640015 
	C1204.811890,1662.213257 1194.113159,1660.870483 1184.136841,1656.024658 
	C1163.844971,1646.168823 1161.082153,1625.656128 1178.182983,1611.055542 
	C1190.659302,1600.403320 1205.503784,1594.837646 1221.472168,1592.296143 
	C1229.638062,1590.996460 1237.958008,1590.665039 1247.096924,1589.727295 
	C1254.208984,1589.870361 1260.432617,1590.182129 1267.481567,1590.535156 
	C1266.796143,1612.014893 1260.089600,1629.956177 1244.087158,1644.686035 
z"/>
</svg>